<?xml version="1.0" standalone="no"?>
<!DOCTYPE svg PUBLIC "-//W3C//DTD SVG 20010904//EN"
 "http://www.w3.org/TR/2001/REC-SVG-20010904/DTD/svg10.dtd">
<svg version="1.0" xmlns="http://www.w3.org/2000/svg"
 width="512.000000pt" height="512.000000pt" viewBox="0 0 512.000000 512.000000"
 preserveAspectRatio="xMidYMid meet">

<g transform="translate(0.000000,512.000000) scale(0.100000,-0.100000)"
fill="#000000" stroke="none">
<path d="M2266 4843 c-49 -51 -66 -76 -66 -98 0 -13 -3 -31 -6 -39 -5 -13 -1
-15 17 -12 13 3 27 5 32 5 4 1 7 11 7 23 0 12 8 31 18 42 17 21 17 21 -5 2
-13 -11 -23 -25 -23 -33 0 -7 -4 -13 -10 -13 -27 0 -2 66 40 108 17 18 27 32
23 32 -5 0 -17 -8 -27 -17z"/>
<path d="M2360 4745 c-12 -13 -27 -22 -32 -19 -5 3 -8 2 -7 -3 4 -15 -13 -63
-22 -63 -12 0 -11 17 1 25 6 3 10 14 10 23 0 11 -7 6 -21 -15 -17 -27 -18 -35
-7 -52 7 -11 10 -23 7 -26 -10 -10 -61 14 -54 25 13 22 -71 -22 -100 -51 l-30
-30 49 25 c55 29 103 34 103 11 0 -8 -4 -15 -8 -15 -5 0 -6 -7 -3 -15 4 -8 15
-15 25 -15 27 0 24 -18 -3 -23 l-23 -4 23 -2 c12 0 22 -8 22 -16 0 -17 -46
-39 -67 -31 -7 3 -24 1 -38 -4 -42 -16 -28 6 18 28 l42 21 -38 1 c-21 0 -48
-5 -60 -12 -29 -15 -97 -89 -97 -105 0 -7 -4 -13 -10 -13 -5 0 -10 -8 -10 -17
0 -9 -3 -13 -7 -10 -3 4 -12 -1 -20 -11 -11 -15 -12 -10 -7 38 6 55 5 55 -13
32 -25 -30 -33 -19 -28 37 4 41 3 42 -4 11 -4 -19 -19 -55 -32 -80 -20 -37
-24 -60 -25 -130 0 -112 1 -107 -36 -131 -28 -17 -29 -19 -8 -14 14 4 30 8 35
9 14 2 18 -70 6 -105 -11 -32 2 -40 18 -11 18 29 32 -6 28 -65 -2 -29 -1 -53
3 -53 4 0 5 -24 2 -54 -2 -31 1 -62 7 -72 9 -15 11 -3 9 59 -2 42 0 77 3 77 9
0 30 -26 25 -31 -2 -2 -6 -19 -9 -36 -8 -39 8 -44 18 -6 l6 27 20 -30 c23 -36
27 -83 5 -64 -13 10 -13 8 -3 -13 6 -14 16 -23 21 -20 5 4 6 1 2 -6 -4 -6 -12
-9 -17 -6 -5 4 -9 -2 -9 -13 0 -13 7 -19 21 -18 18 1 25 -10 41 -62 21 -69 19
-82 -9 -62 -10 7 -5 1 10 -14 15 -14 36 -50 46 -79 10 -29 28 -72 40 -95 12
-23 21 -60 21 -84 0 -42 -21 -88 -40 -88 -5 0 -21 -5 -37 -12 -15 -6 -34 -12
-42 -14 -7 -1 -26 -14 -40 -28 -15 -14 -31 -26 -35 -26 -20 0 -105 -44 -110
-57 -4 -10 2 -8 20 6 14 11 42 25 62 32 20 6 52 22 69 36 18 13 36 24 39 23 4
0 9 -19 11 -44 3 -37 -1 -48 -26 -75 -25 -26 -30 -29 -41 -16 -7 8 -16 15 -21
15 -15 0 -79 -76 -116 -137 -19 -32 -44 -65 -55 -74 -22 -17 -21 -17 18 -28
21 -6 47 -11 57 -11 16 0 17 -5 12 -32 -10 -43 -48 -115 -53 -99 -2 7 4 33 13
58 20 53 15 62 -45 70 -41 6 -42 5 -35 -18 17 -52 35 -125 35 -141 0 -14 -9
-11 -45 16 -66 51 -142 76 -231 76 l-75 0 -47 -44 -47 -45 23 -30 c35 -47 26
-46 -30 3 -61 53 -123 87 -159 85 -20 -1 -20 -2 -5 -6 25 -7 97 -53 113 -73 6
-8 9 -18 6 -22 -2 -5 3 -11 11 -14 9 -3 16 -11 16 -16 0 -6 -7 -7 -16 -4 -33
13 -208 -156 -254 -244 -9 -15 -16 -83 -20 -175 -4 -82 -7 -141 -8 -129 -1 11
-6 24 -11 30 -12 12 -31 149 -31 224 0 73 32 231 59 290 44 98 94 170 117 170
6 0 18 7 25 16 9 11 2 10 -25 -6 -35 -19 -38 -19 -32 -3 4 12 -1 9 -14 -7 -11
-14 -20 -31 -20 -38 0 -7 -12 -30 -26 -51 -36 -54 -69 -160 -89 -281 -16 -92
-16 -114 -5 -194 8 -50 14 -121 14 -158 1 -39 6 -72 13 -79 10 -10 12 -8 8 9
-2 12 0 22 6 22 12 0 12 -43 -1 -56 -7 -7 -6 -24 5 -53 8 -24 15 -74 15 -111
0 -89 33 -276 65 -369 14 -41 25 -82 25 -92 0 -10 9 -24 19 -31 11 -8 27 -34
37 -58 10 -25 46 -92 80 -150 34 -58 98 -177 142 -265 l81 -160 8 -165 c8
-143 7 -176 -9 -250 -10 -47 -18 -109 -18 -137 l0 -53 579 0 c570 0 579 0 584
20 3 11 13 20 22 20 12 0 15 -5 10 -20 -6 -20 -3 -20 530 -20 l537 1 -7 64
c-5 49 11 482 19 492 0 1 59 4 129 8 111 7 133 5 167 -10 73 -33 145 7 196
107 23 45 44 138 31 138 -3 0 -13 -23 -22 -50 -9 -28 -21 -50 -26 -50 -6 0 -7
-5 -4 -10 4 -6 3 -10 -2 -9 -4 1 -21 -3 -37 -10 -68 -28 -78 29 -16 85 43 39
53 79 23 87 -14 4 -12 5 5 6 13 1 22 7 22 17 0 13 -8 11 -44 -10 -59 -35 -93
-36 -51 -1 29 24 29 24 7 25 -15 0 -26 7 -29 20 -3 11 -13 20 -23 20 -10 0
-25 6 -32 13 -28 28 -59 37 -125 37 -45 0 -76 5 -89 15 -10 8 -35 15 -54 15
-42 0 -60 30 -60 97 0 36 -3 43 -20 43 -11 0 -20 5 -20 11 0 6 -6 9 -14 6 -16
-6 -28 14 -18 30 16 25 265 42 315 22 19 -8 32 -9 34 -3 2 5 21 8 43 6 36 -4
40 -2 40 19 0 51 -43 66 -65 24 -11 -21 -35 -32 -35 -15 0 6 -10 10 -22 11
-22 1 -22 1 2 8 46 14 90 41 90 56 0 12 -8 12 -52 -1 -29 -8 -67 -22 -85 -30
-17 -8 -41 -14 -52 -14 -19 0 -21 4 -16 33 3 17 7 45 9 60 3 15 18 45 35 65
16 21 33 51 37 66 l7 28 97 -4 c75 -2 100 -7 114 -21 20 -19 31 -23 20 -6 -4
7 -1 10 7 7 8 -3 13 -14 12 -24 -1 -10 0 -13 3 -6 8 16 66 15 89 -2 17 -12 20
-31 25 -128 l5 -113 8 100 c23 267 2 436 -75 602 -16 33 -17 46 -8 63 16 30 2
111 -20 117 -14 4 -19 21 -24 91 -13 160 -46 274 -119 417 -36 70 -77 136 -77
124 0 -4 16 -33 35 -64 19 -32 42 -79 51 -104 9 -25 26 -66 36 -91 25 -59 48
-156 47 -200 l-1 -35 -14 32 c-7 17 -18 34 -23 37 -10 7 -41 -37 -41 -59 0
-29 -17 -15 -28 24 -15 47 -16 73 -3 53 5 -8 6 9 3 40 -3 41 -15 70 -51 127
-25 40 -53 82 -63 91 -9 10 -18 26 -21 37 -3 16 -5 15 -16 -7 -10 -22 -11 -18
-6 25 3 28 9 65 12 83 9 55 -13 35 -26 -23 -7 -31 -17 -53 -22 -49 -6 3 -9 13
-8 22 1 10 1 22 0 28 -1 13 -44 34 -69 34 -9 0 -42 13 -72 30 -39 20 -69 29
-104 30 -39 0 -55 6 -83 30 -36 32 -74 38 -117 19 -34 -16 -53 -2 -146 103
-84 95 -147 143 -201 152 -28 5 -39 14 -52 40 -12 26 -13 36 -4 40 7 2 1 5
-13 6 -45 3 -95 26 -108 51 -11 20 -12 21 -10 4 2 -11 24 -33 51 -50 l48 -30
-3 -56 c-2 -32 -14 -76 -28 -105 -28 -54 -21 -52 -145 -40 l-60 6 70 -14 c146
-29 269 -95 341 -184 l39 -47 -50 41 c-97 81 -221 144 -281 144 -15 0 -12 -6
14 -26 31 -24 46 -72 20 -61 -113 50 -144 59 -182 53 -53 -8 -134 -25 -168
-36 -16 -5 -28 -4 -28 1 0 4 -7 6 -15 3 -8 -4 -15 -1 -15 6 0 7 -7 10 -15 6
-12 -4 -15 3 -15 30 0 22 6 37 16 41 18 7 35 -14 27 -34 -8 -19 6 -16 36 10
26 21 70 38 135 52 23 5 27 8 15 16 -11 7 -10 9 6 9 16 0 17 2 5 10 -12 8 -11
12 7 32 11 13 24 33 28 46 3 12 11 20 16 17 5 -4 9 -1 9 4 0 6 5 11 10 11 19
0 10 -63 -12 -88 l-23 -25 32 5 c18 2 35 0 37 -6 11 -26 24 22 30 112 4 53 7
106 7 117 0 11 4 33 11 48 8 21 13 25 19 15 6 -8 9 -1 9 20 0 19 13 61 28 95
16 34 35 86 42 115 6 29 17 58 24 65 6 7 22 26 36 42 l25 30 -26 -22 c-41 -36
-43 -30 -17 55 6 21 15 32 25 30 21 -4 25 29 7 63 -20 40 -18 59 9 59 20 1 20
2 4 11 -14 8 -15 13 -5 24 26 29 33 40 36 60 5 28 9 30 27 15 17 -14 21 0 4
17 -8 8 -5 29 11 77 19 55 22 80 17 144 -3 42 -10 88 -16 102 -8 20 -9 13 -6
-35 2 -33 2 -51 -1 -40 -3 11 -10 36 -15 55 -4 19 -18 41 -29 48 -20 12 -20
11 -11 -7 15 -28 14 -35 -4 -17 -8 8 -15 21 -15 28 0 14 -75 111 -90 116 -5 2
-8 -11 -8 -28 1 -36 -11 -54 -13 -19 -1 13 -1 28 0 32 3 17 -41 77 -77 105
-60 47 -142 84 -142 63 0 -4 12 -18 26 -32 14 -13 36 -37 47 -54 18 -26 14
-24 -27 13 -53 46 -67 49 -40 8 9 -15 15 -28 13 -31 -2 -2 -29 14 -59 36 -111
78 -140 92 -194 93 -28 0 -64 -3 -81 -8 -28 -9 -29 -8 -16 8 32 38 71 49 161
43 l85 -5 -45 21 c-35 16 -66 21 -137 21 -86 1 -91 2 -76 19 9 9 28 17 42 17
21 0 23 2 11 11 -12 8 -8 9 15 6 17 -2 24 -2 17 0 -7 3 -10 9 -7 14 4 5 -9 9
-28 9 -23 0 -41 -8 -57 -25z m-10 -170 c-7 -8 -17 -15 -22 -15 -6 0 -5 7 2 15
7 8 17 15 22 15 6 0 5 -7 -2 -15z m79 -64 c11 -7 8 -12 -13 -25 -84 -51 -76
-49 -76 -22 0 45 50 71 89 47z m-239 -76 c-13 -14 -28 -25 -34 -25 -11 1 40
50 51 50 4 0 -4 -11 -17 -25z m309 21 c-2 -2 -20 -6 -39 -10 -25 -4 -31 -3
-20 4 14 9 69 15 59 6z m330 -30 c-3 -3 -11 5 -18 17 -13 21 -12 21 5 5 10
-10 16 -20 13 -22z m-243 -1 c10 -8 14 -15 8 -15 -5 0 -19 7 -30 15 -10 8 -14
15 -8 15 5 0 19 -7 30 -15z m-655 -106 c-30 -74 -41 -70 -19 6 6 22 11 43 10
48 -1 4 3 7 8 7 6 0 9 3 9 8 -3 18 2 25 11 16 8 -8 2 -33 -19 -85z m366 74
c-10 -10 -107 -21 -107 -12 0 4 6 10 13 12 19 8 101 8 94 0z m627 -98 c-7 -16
-23 -19 -51 -8 -14 6 -11 9 17 14 19 4 36 7 37 8 1 0 0 -6 -3 -14z m163 -57
c-3 -7 -5 -2 -5 12 0 14 2 19 5 13 2 -7 2 -19 0 -25z m-509 -73 c7 -22 18
-103 23 -180 6 -77 13 -143 18 -148 9 -9 113 9 164 28 51 20 74 19 82 -5 8
-25 25 -26 25 -2 0 10 3 22 7 25 9 10 63 -50 63 -70 0 -15 2 -16 10 -3 14 21
13 117 -1 122 -7 2 0 12 15 21 22 15 26 15 26 2 0 -8 -6 -15 -12 -15 -10 0 -9
-3 1 -9 7 -5 11 -13 8 -18 -3 -5 -8 -56 -11 -114 -6 -112 -43 -280 -76 -340
-11 -20 -16 -40 -12 -44 4 -5 1 -5 -5 -1 -8 4 -13 2 -13 -6 0 -7 -9 -19 -20
-26 -16 -10 -20 -10 -20 0 0 9 -3 9 -9 -2 -6 -8 -8 -17 -5 -21 2 -4 -3 -9 -11
-13 -8 -3 -15 -15 -15 -26 0 -11 -4 -20 -10 -20 -5 0 -10 -7 -10 -15 0 -8 -4
-15 -8 -15 -4 0 -13 -12 -20 -27 -26 -58 -69 -119 -78 -110 -4 4 -13 2 -21 -4
-9 -9 -13 -8 -13 0 0 8 -6 8 -20 -1 -28 -18 -34 -5 -15 31 9 18 13 36 10 41
-7 11 -115 14 -115 4 0 -4 8 -13 18 -20 16 -11 15 -13 -10 -23 -29 -11 -38
-36 -16 -43 8 -3 6 -7 -5 -11 -12 -4 -30 7 -62 41 -25 26 -45 50 -45 54 0 5
-7 8 -15 8 -11 0 -14 7 -9 25 4 18 2 25 -9 25 -8 0 -18 7 -21 16 -5 13 -9 14
-20 5 -11 -10 -16 -8 -21 8 -3 12 -10 21 -15 21 -6 0 -6 10 0 25 9 25 -4 37
-13 13 -3 -8 -6 -7 -6 4 -1 10 -15 22 -35 29 -19 7 -33 16 -30 21 3 4 0 8 -5
8 -6 0 -11 8 -11 18 0 9 -7 26 -16 37 -27 35 -74 204 -84 299 -8 76 -7 103 5
144 17 57 24 65 45 52 13 -8 10 -19 -17 -68 -39 -71 -41 -79 -8 -47 26 27 56
31 120 14 22 -5 56 -14 75 -19 19 -5 63 -10 98 -11 48 -1 62 -5 58 -15 -6 -15
10 -29 18 -16 7 12 -24 70 -41 76 -8 3 -69 14 -135 23 -95 13 -124 14 -139 5
-17 -11 -16 -7 6 26 17 25 32 72 45 140 29 154 13 143 198 140 l157 -3 13 -40z
m434 -7 c-7 -7 -12 -8 -12 -2 0 6 3 14 7 17 3 4 9 5 12 2 2 -3 -1 -11 -7 -17z
m-1076 -4 c-3 -9 -6 -21 -7 -27 0 -7 -4 -3 -8 8 -9 22 -5 35 11 35 5 0 7 -7 4
-16z m798 -87 c25 -45 47 -94 51 -108 6 -23 2 -27 -33 -37 -22 -7 -42 -12 -46
-12 -3 0 -6 24 -6 54 0 50 -13 137 -26 180 -13 40 17 2 60 -77z m-767 51 c-3
-8 -6 -5 -6 6 -1 11 2 17 5 13 3 -3 4 -12 1 -19z m194 -131 c-5 -5 -15 -6 -21
-2 -13 8 -8 48 13 120 l12 40 3 -74 c2 -41 -1 -78 -7 -84z m500 -1 l22 -70
-24 -19 -24 -19 -6 28 c-4 16 -7 63 -8 104 -1 86 7 81 40 -24z m446 72 c-3 -8
-6 -5 -6 6 -1 11 2 17 5 13 3 -3 4 -12 1 -19z m-197 -39 c0 -6 -4 -7 -10 -4
-5 3 -10 11 -10 16 0 6 5 7 10 4 6 -3 10 -11 10 -16z m-52 -60 c-3 -20 -5 -19
-9 9 -3 20 -2 29 4 23 5 -5 7 -19 5 -32z m-31 -21 c-3 -8 -6 -5 -6 6 -1 11 2
17 5 13 3 -3 4 -12 1 -19z m213 -200 c0 -6 -7 -5 -15 2 -8 7 -15 17 -15 22 0
6 7 5 15 -2 8 -7 15 -17 15 -22z m-821 -516 c-4 -19 -10 -69 -13 -111 -8 -93
6 -69 24 42 12 73 14 77 30 62 10 -9 20 -35 23 -60 4 -24 26 -81 51 -127 24
-46 54 -107 66 -137 l21 -54 -50 6 c-65 8 -100 27 -157 85 -50 51 -114 167
-114 206 0 17 10 31 35 46 45 28 65 57 65 95 l1 30 13 -24 c9 -16 11 -35 5
-59z m615 -48 c3 -8 2 -12 -4 -9 -6 3 -10 10 -10 16 0 14 7 11 14 -7z m-349
-345 c-4 -5 -19 -15 -33 -21 l-27 -12 23 -4 c16 -2 29 3 38 17 8 11 25 20 37
20 12 0 32 2 45 6 13 4 22 4 21 -1 -4 -21 2 -34 14 -34 18 0 101 -60 94 -67
-3 -3 -16 2 -29 11 -12 9 -42 16 -66 16 -24 0 -51 4 -61 10 -13 7 -27 3 -54
-16 -35 -24 -50 -21 -25 4 6 6 10 14 7 16 -2 3 -29 -19 -59 -49 -30 -29 -59
-50 -64 -47 -5 3 -6 -1 -1 -8 4 -7 4 -15 -1 -19 -5 -3 -17 -22 -27 -41 -10
-19 -31 -44 -47 -55 -17 -11 -33 -28 -36 -38 -3 -10 -8 -16 -10 -14 -7 6 32
120 56 165 22 40 25 56 10 47 -5 -3 -10 -2 -10 4 0 10 89 81 135 108 25 15 79
17 70 2z m303 -20 c18 -11 -5 -8 -78 11 -32 9 -31 9 13 5 27 -3 56 -10 65 -16z
m511 11 c-18 -11 -132 -30 -123 -21 3 3 31 11 62 17 74 15 80 15 61 4z m-209
-28 c32 -16 76 -78 95 -133 17 -46 20 -89 6 -89 -5 0 -11 -8 -14 -17 -2 -10
-8 -27 -12 -38 -6 -16 -3 -15 14 5 l21 25 0 -42 c0 -44 -13 -64 -24 -36 -6 14
-10 12 -26 -12 -21 -32 -26 -65 -10 -65 6 0 10 5 10 10 0 17 27 11 34 -7 5
-11 10 -13 17 -6 8 8 8 17 0 32 -15 26 -6 26 57 0 48 -20 51 -24 58 -66 5 -35
3 -48 -12 -64 -17 -19 -17 -20 1 -13 16 7 18 3 12 -31 -8 -50 -27 -70 -27 -29
0 17 -3 34 -7 37 -13 14 -32 -30 -33 -74 0 -44 1 -45 29 -41 26 4 29 1 34 -34
4 -21 3 -42 -1 -46 -4 -4 -55 -9 -112 -10 -103 -3 -106 -2 -158 30 -29 17 -63
32 -77 32 -31 0 -104 28 -129 49 -48 42 -68 124 -45 190 9 26 16 31 42 31 17
0 39 -8 49 -17 23 -21 92 -29 85 -9 -5 13 4 69 27 151 11 42 11 55 -1 85 -25
64 -55 115 -92 154 -34 37 -35 38 -6 19 39 -28 70 -61 89 -98 9 -16 16 -23 16
-14 0 8 -6 21 -12 28 -11 11 -10 13 0 7 24 -14 45 -71 46 -128 1 -62 8 -67 40
-24 30 39 29 163 -1 229 -13 27 -19 47 -15 45 4 -2 18 -9 32 -16z m-819 -45
c-10 -9 -11 -8 -5 6 3 10 9 15 12 12 3 -3 0 -11 -7 -18z m-261 3 c0 -5 -9 -10
-20 -10 -11 0 -20 5 -20 10 0 6 9 10 20 10 11 0 20 -4 20 -10z m1037 -82 c-3
-8 -6 -5 -6 6 -1 11 2 17 5 13 3 -3 4 -12 1 -19z m21 -98 c1 -23 0 -23 -8 -5
-5 11 -8 36 -8 55 l0 35 8 -30 c4 -16 8 -41 8 -55z m-701 18 c-3 -7 -5 -2 -5
12 0 14 2 19 5 13 2 -7 2 -19 0 -25z m-1221 -290 c29 -31 29 -31 2 -12 -15 10
-29 25 -32 32 -8 18 -2 15 30 -20z m1063 -38 c28 15 38 13 44 -10 3 -11 0 -20
-5 -20 -6 0 -4 -8 4 -17 16 -19 38 -77 38 -101 0 -8 -6 -12 -15 -8 -19 7 -19
7 1 -39 11 -28 12 -40 4 -45 -8 -5 -6 -9 5 -14 10 -3 23 -2 30 4 6 5 36 14 66
19 46 7 49 9 18 10 -29 1 -42 8 -61 34 -29 37 -60 124 -49 132 9 5 87 -50 139
-98 22 -21 32 -40 32 -60 0 -16 -4 -26 -10 -22 -5 3 -10 1 -10 -5 0 -7 19 -10
50 -8 42 3 50 6 51 23 1 17 2 17 6 3 6 -22 6 -22 79 1 101 32 210 44 288 31
38 -6 71 -8 74 -5 3 3 -2 5 -11 5 -9 0 -19 4 -22 10 -8 13 67 -14 101 -36 24
-16 25 -19 8 -26 -11 -4 0 -5 26 -2 37 5 51 1 83 -20 20 -14 37 -21 37 -16 0
6 22 10 49 10 37 0 56 -6 78 -24 15 -13 46 -32 68 -44 47 -23 62 -40 100 -104
16 -29 34 -48 44 -48 10 0 23 -11 29 -25 6 -14 19 -25 29 -25 9 0 29 -15 44
-32 21 -24 28 -28 29 -16 0 9 -4 20 -10 23 -19 12 -10 33 20 45 26 11 33 10
49 -4 9 -9 24 -16 32 -16 8 0 20 -9 27 -20 7 -11 21 -20 32 -20 12 0 26 -12
35 -30 9 -16 20 -30 25 -30 6 0 10 -8 10 -18 0 -10 7 -28 17 -41 14 -20 14
-29 3 -60 -15 -45 -38 -81 -49 -81 -5 0 -2 14 6 31 13 26 13 33 2 40 -21 13
-26 11 -34 -13 -6 -18 -9 -9 -16 37 -5 32 -15 66 -23 74 -13 12 -13 7 -1 -45
13 -54 13 -61 -4 -84 -27 -38 -59 -50 -138 -50 -68 0 -73 1 -73 22 0 27 -27
58 -52 58 -12 0 -18 7 -18 22 0 20 -1 20 -12 5 -12 -16 -18 -15 -83 12 -113
46 -149 67 -188 110 -28 32 -37 50 -37 78 0 49 -8 38 -13 -17 -4 -45 -7 -50
-29 -50 -10 0 -9 3 1 9 7 5 11 13 7 19 -9 15 -58 24 -69 13 -13 -13 45 -71 72
-71 11 0 26 -7 35 -15 8 -8 20 -15 26 -15 6 0 21 -10 33 -22 13 -13 38 -24 56
-25 19 -1 55 -13 80 -26 56 -30 64 -62 31 -123 l-23 -41 -187 1 c-141 1 -191
-2 -203 -12 -18 -15 -59 -13 -64 4 -2 7 8 14 22 18 14 4 25 11 25 17 0 12 -40
8 -108 -11 -39 -11 -49 -10 -102 11 -33 13 -60 29 -60 36 0 8 17 20 38 29 83
35 182 87 182 95 0 13 -34 11 -48 -3 -8 -8 -12 -8 -12 -1 0 6 7 13 15 17 8 3
12 12 9 19 -9 23 22 84 72 143 26 30 40 52 31 49 -8 -4 -34 -28 -56 -55 -51
-60 -91 -73 -206 -68 -75 3 -86 6 -140 42 l-58 38 22 -31 c27 -38 32 -41 95
-56 28 -7 41 -13 29 -14 -13 -1 -23 -4 -23 -8 0 -5 47 -6 105 -5 74 3 105 0
105 -8 0 -6 -4 -9 -9 -6 -4 3 -23 -6 -41 -19 -42 -31 -142 -68 -250 -94 -109
-26 -352 -57 -407 -52 -17 1 -60 50 -78 88 -8 17 -31 51 -51 74 -20 24 -40 54
-45 67 -5 13 -18 26 -28 29 -10 2 -24 15 -31 28 -11 20 -9 35 10 94 12 38 20
76 18 83 -3 7 -13 -13 -23 -45 l-18 -58 -20 33 c-11 18 -26 37 -33 41 -21 12
-17 46 14 107 19 38 37 59 58 69 33 14 70 59 39 48 -13 -6 -16 -2 -13 21 2 21
9 28 31 30 16 2 27 9 27 18 0 27 31 63 65 74 18 6 36 18 39 26 4 12 10 13 26
4 14 -7 26 -8 39 0z m1981 -164 c0 -8 2 -20 3 -28 2 -7 2 -10 0 -7 -2 3 -15 4
-28 1 -29 -5 -32 4 -8 30 19 22 33 23 33 4z m30 0 c0 -3 -4 -8 -10 -11 -5 -3
-10 -1 -10 4 0 6 5 11 10 11 6 0 10 -2 10 -4z m-1902 -27 c15 -24 10 -35 -10
-22 -13 8 -21 43 -9 43 3 0 12 -9 19 -21z m1852 -194 c0 -16 -6 -25 -15 -25
-18 0 -18 5 -5 31 14 26 20 24 20 -6z m75 -115 c4 -16 10 -32 15 -35 4 -3 6 4
3 15 -3 11 -1 20 5 20 5 0 12 -9 15 -20 3 -11 1 -20 -5 -20 -5 0 -6 -10 -3
-22 5 -18 4 -20 -4 -8 -10 14 -16 7 -11 -15 1 -5 -5 -4 -12 4 -10 11 -10 14 0
18 21 8 13 23 -13 23 -17 0 -25 6 -25 18 0 14 -2 15 -10 2 -7 -12 -9 -11 -8 6
1 12 9 21 18 20 8 -1 14 6 14 16 -3 28 14 11 21 -22z m53 -5 c-3 -3 -9 2 -12
12 -6 14 -5 15 5 6 7 -7 10 -15 7 -18z m20 -144 c-3 -24 -3 -24 -22 -6 -17 17
-17 19 -1 31 13 10 14 17 6 32 -6 12 -8 29 -4 39 5 13 9 6 15 -27 5 -25 7 -56
6 -69z m-2416 46 c4 -20 1 -23 -18 -19 -12 2 -25 -1 -28 -7 -5 -7 -1 -8 10 -4
13 5 16 3 11 -10 -5 -14 1 -17 36 -17 56 0 87 -9 81 -24 -2 -6 -14 -13 -27
-13 -46 -4 -90 -42 -49 -44 10 0 6 -4 -11 -11 -54 -20 -135 63 -107 109 11 17
73 59 91 62 4 1 9 -9 11 -22z m-775 -24 c-3 -10 -5 -4 -5 12 0 17 2 24 5 18 2
-7 2 -21 0 -30z m-20 -45 c-3 -7 -5 -2 -5 12 0 14 2 19 5 13 2 -7 2 -19 0 -25z
m17 -84 c3 -8 2 -12 -4 -9 -6 3 -10 10 -10 16 0 14 7 11 14 -7z m1643 -10 c-3
-3 -12 -4 -19 -1 -8 3 -5 6 6 6 11 1 17 -2 13 -5z m-40 -10 c-3 -3 -12 -4 -19
-1 -8 3 -5 6 6 6 11 1 17 -2 13 -5z m-974 -43 c20 -8 26 -19 32 -58 4 -26 10
-52 15 -58 4 -5 9 -22 12 -36 4 -24 0 -28 -31 -37 -20 -6 -61 -14 -91 -18 -72
-9 -82 -15 -85 -52 l-3 -31 38 25 c35 23 148 64 178 64 7 0 10 -4 7 -10 -9
-15 3 -12 64 11 89 33 99 23 41 -39 -28 -30 -50 -61 -50 -71 0 -18 -37 -41
-65 -41 -8 0 -15 -4 -15 -10 0 -5 -16 -10 -35 -10 -19 0 -35 -4 -35 -9 0 -5
-13 -14 -30 -21 -16 -7 -30 -19 -30 -26 0 -11 -15 -14 -65 -12 -74 3 -68 -7
-65 120 l2 77 -72 83 c-40 46 -76 82 -81 81 -5 -2 -9 -1 -9 2 0 10 95 47 170
65 83 21 166 25 203 11z m762 -11 c-3 -5 -16 -10 -28 -9 -21 0 -21 1 -2 9 28
12 37 12 30 0z m-1361 -26 c3 -8 2 -12 -4 -9 -6 3 -10 10 -10 16 0 14 7 11 14
-7z m1413 10 c-3 -3 -12 -4 -19 -1 -8 3 -5 6 6 6 11 1 17 -2 13 -5z m1112
-138 c32 -33 33 -34 13 -45 -12 -6 -30 -11 -41 -11 -18 0 -21 6 -21 45 0 25 4
45 8 45 4 0 23 -15 41 -34z m-2331 -54 c45 -43 82 -86 82 -97 0 -17 -1 -17
-19 -1 -11 10 -25 15 -31 11 -8 -5 -7 -10 3 -18 20 -17 49 -120 42 -150 -4
-13 -2 -28 4 -31 5 -4 8 -12 6 -19 -6 -18 51 -182 64 -183 21 -3 22 -4 16 -14
-9 -14 -30 3 -48 39 -60 116 -126 235 -158 282 -103 153 -127 259 -59 259 8 0
52 -36 98 -78z m1022 61 c0 -11 -3 -14 -8 -7 -4 6 -14 14 -22 17 -10 4 -8 6 8
6 15 1 22 -5 22 -16z m708 -35 c-3 -7 -18 -14 -34 -15 -24 -2 -26 -1 -9 6 18
8 17 9 -10 13 -24 4 -22 5 13 7 31 1 42 -3 40 -11z m-698 -43 c0 -8 -7 -15
-15 -15 -16 0 -20 12 -8 23 11 12 23 8 23 -8z m1080 6 c0 -5 -9 -11 -19 -14
-14 -3 -18 -1 -14 9 6 15 33 19 33 5z m-1160 -42 c0 -11 -4 -17 -10 -14 -5 3
-10 15 -10 26 0 11 5 17 10 14 6 -3 10 -15 10 -26z m-84 -25 c-3 -9 -6 -22 -6
-30 0 -8 -10 -14 -25 -14 -31 0 -31 3 -2 34 26 28 42 33 33 10z m-69 -81 c-15
-16 -17 -16 -17 -1 0 9 6 18 13 21 20 7 22 -2 4 -20z m-37 -33 c0 -5 -8 -10
-17 -10 -15 0 -16 2 -3 10 19 12 20 12 20 0z m650 -45 c0 -2 -10 -9 -22 -15
-22 -11 -22 -10 -4 4 21 17 26 19 26 11z m940 -105 c0 -5 -5 -10 -11 -10 -5 0
-7 5 -4 10 3 6 8 10 11 10 2 0 4 -4 4 -10z m69 3 c23 -6 23 -7 5 -14 -31 -12
-54 -10 -54 6 0 16 12 18 49 8z m171 -33 c0 -5 -10 -10 -22 -9 -22 0 -22 1 -3
9 11 5 21 9 23 9 1 1 2 -3 2 -9z m65 -16 c17 -8 22 -12 12 -9 -10 3 -30 5 -43
5 -13 0 -24 5 -24 10 0 14 19 12 55 -6z m-565 -242 c23 -11 37 -27 42 -46 8
-34 3 -45 -14 -28 -7 7 -23 12 -37 12 -14 0 -50 5 -80 11 l-56 12 30 34 c33
37 48 37 115 5z m85 -297 c4 -61 11 -134 16 -163 12 -58 26 -65 80 -36 40 20
45 13 29 -35 l-13 -40 -28 22 c-23 16 -32 18 -41 9 -7 -7 -21 -12 -31 -12 -14
0 -18 5 -14 20 6 23 -20 28 -53 10 -13 -7 -27 -6 -44 2 -28 12 -35 42 -12 51
39 15 107 224 92 281 -3 11 -1 15 4 10 5 -5 12 -59 15 -119z"/>
<path d="M2686 3823 c-14 -7 -26 -19 -26 -25 0 -6 -8 -17 -17 -25 -16 -12 -14
-13 20 -7 22 4 37 2 37 -4 0 -5 9 -12 21 -15 12 -3 18 -10 14 -16 -7 -13 35
-31 73 -31 18 0 40 14 66 40 l39 39 -84 -6 c-80 -5 -85 -5 -85 14 0 14 5 19
18 15 13 -3 18 1 18 17 0 17 -6 20 -34 19 -18 -1 -45 -7 -60 -15z"/>
<path d="M2390 3790 c36 -11 50 -11 50 0 0 6 -17 10 -37 9 -34 -1 -35 -2 -13
-9z"/>
<path d="M2145 3779 c-11 -16 -1 -19 13 -3 7 8 8 14 3 14 -5 0 -13 -5 -16 -11z"/>
<path d="M2359 3760 c-20 -4 -73 -6 -118 -4 -78 1 -81 1 -64 -16 10 -9 23 -15
29 -13 6 2 24 -4 40 -12 l29 -17 -48 5 c-27 3 -45 1 -40 -3 12 -11 103 -21
103 -11 0 8 79 46 112 52 33 8 -7 25 -43 19z"/>
<path d="M2599 3424 c-8 -10 -23 -14 -41 -12 -15 3 -28 1 -28 -4 0 -16 65 -7
90 12 19 15 21 20 9 20 -9 0 -22 -7 -30 -16z"/>
<path d="M2500 3405 c14 -17 26 -32 28 -34 1 -2 5 -2 8 2 7 6 -7 21 -41 47
-15 11 -14 7 5 -15z"/>
<path d="M2410 3311 c-21 -4 -36 -12 -38 -23 -6 -31 27 -37 173 -27 77 5 152
10 168 10 21 0 27 4 27 22 0 22 -2 22 -148 23 -81 1 -163 -2 -182 -5z m205
-31 c-25 -11 -132 -13 -138 -2 -3 4 32 8 76 9 54 1 75 -1 62 -7z"/>
<path d="M2267 2591 c-24 -42 -21 -52 4 -13 12 18 20 35 17 37 -2 2 -12 -9
-21 -24z"/>
<path d="M2812 2338 c-7 -7 -12 -23 -12 -37 l0 -26 13 24 c15 31 28 35 52 17
17 -12 18 -17 7 -40 -7 -15 -8 -26 -2 -26 6 0 10 -10 10 -21 0 -18 2 -19 15
-9 12 10 15 10 15 -4 0 -10 -9 -16 -22 -16 -22 -1 -22 -1 -5 -14 10 -8 27 -12
38 -9 11 3 28 -2 39 -12 12 -11 20 -13 20 -6 0 7 -11 22 -25 35 -14 13 -25 29
-25 35 0 16 -39 91 -55 108 -17 16 -47 17 -63 1z"/>
<path d="M3000 2300 c6 -11 13 -20 16 -20 2 0 0 9 -6 20 -6 11 -13 20 -16 20
-2 0 0 -9 6 -20z"/>
<path d="M2517 2003 c-15 -14 -5 -41 26 -71 50 -49 62 -38 21 21 -43 63 -39
58 -47 50z"/>
<path d="M2024 1984 c-18 -14 -18 -15 4 -4 12 6 22 13 22 15 0 8 -5 6 -26 -11z"/>
<path d="M2126 1900 c-14 -17 -26 -37 -26 -43 0 -8 4 -7 9 2 7 11 10 9 14 -10
4 -23 4 -22 6 4 0 15 5 27 10 27 9 0 23 41 17 47 -2 2 -15 -10 -30 -27z"/>
<path d="M2260 1894 c-6 -14 -10 -35 -9 -47 0 -18 3 -16 12 10 7 17 15 35 20
39 10 11 9 24 -3 24 -6 0 -15 -12 -20 -26z"/>
<path d="M3145 1870 c-8 -16 -28 -36 -43 -44 -15 -9 -22 -15 -15 -16 18 0 70
47 76 70 7 29 0 25 -18 -10z"/>
<path d="M3128 1813 c-10 -2 -18 -9 -18 -14 0 -6 8 -5 20 1 11 6 20 13 20 15
0 3 -1 4 -2 4 -2 -1 -11 -3 -20 -6z"/>
<path d="M3046 1781 c-4 -5 3 -7 14 -4 23 6 26 13 6 13 -8 0 -17 -4 -20 -9z"/>
<path d="M2050 1734 c0 -3 9 -17 20 -31 23 -29 25 -25 8 12 -10 22 -28 35 -28
19z"/>
<path d="M2100 1670 c-12 -7 -11 -13 10 -36 18 -19 20 -25 8 -21 -12 4 -15 2
-11 -9 3 -7 12 -14 20 -14 11 0 14 6 9 23 -3 12 -6 32 -6 45 0 24 -7 27 -30
12z"/>
<path d="M2206 1542 c-6 -9 46 -52 64 -52 17 0 11 20 -7 27 -10 3 -25 12 -35
20 -9 8 -19 10 -22 5z"/>
<path d="M3664 1475 c-10 -8 -27 -15 -36 -15 -21 0 -24 -16 -4 -23 24 -9 54 4
60 26 7 28 4 30 -20 12z"/>
<path d="M2428 1473 c6 -2 18 -2 25 0 6 3 1 5 -13 5 -14 0 -19 -2 -12 -5z"/>
<path d="M3263 1433 c-13 -8 -23 -19 -23 -24 0 -23 140 5 148 29 5 16 -101 12
-125 -5z"/>
<path d="M1656 1101 c-3 -5 1 -11 9 -14 9 -4 12 -1 8 9 -6 16 -10 17 -17 5z"/>
<path d="M1615 1070 c-10 -11 -16 -22 -13 -25 3 -3 13 4 23 15 10 11 16 22 13
25 -3 3 -13 -4 -23 -15z"/>
<path d="M1630 1039 c0 -5 5 -7 10 -4 6 3 10 8 10 11 0 2 -4 4 -10 4 -5 0 -10
-5 -10 -11z"/>
<path d="M2097 4669 c-49 -32 -89 -75 -120 -128 -26 -45 -14 -38 17 10 36 53
90 105 135 129 20 11 31 19 25 20 -6 0 -32 -14 -57 -31z"/>
<path d="M2920 4512 c0 -12 91 -112 101 -112 17 0 9 16 -37 68 -42 48 -64 63
-64 44z"/>
<path d="M3040 4503 c0 -5 10 -18 23 -29 l22 -19 -20 25 c-11 14 -21 27 -22
29 -2 2 -3 0 -3 -6z"/>
<path d="M3101 4427 c11 -8 14 -19 9 -33 -9 -24 -2 -74 11 -74 5 0 13 -15 18
-32 9 -31 9 -31 10 -7 1 15 -6 46 -14 69 -19 54 -19 58 3 62 11 3 6 8 -18 16
-28 9 -32 9 -19 -1z"/>
<path d="M3080 4411 c0 -6 4 -13 10 -16 6 -3 7 1 4 9 -7 18 -14 21 -14 7z"/>
<path d="M3150 4209 c0 -8 7 -24 15 -35 19 -25 19 -14 0 22 -8 16 -15 22 -15
13z"/>
<path d="M3102 3895 c0 -11 3 -29 8 -40 11 -25 11 1 0 35 -6 20 -8 21 -8 5z"/>
<path d="M3102 3810 c0 -14 2 -19 5 -12 2 6 2 18 0 25 -3 6 -5 1 -5 -13z"/>
<path d="M3091 3135 c14 -13 90 -38 96 -31 2 2 -22 12 -53 24 -36 13 -52 16
-43 7z"/>
<path d="M1792 3013 c-15 -16 -21 -23 -13 -17 9 6 30 19 46 27 20 11 24 16 13
17 -10 0 -30 -12 -46 -27z"/>
<path d="M3335 3025 c17 -8 39 -14 50 -14 l20 0 -20 8 c-11 4 -33 11 -50 14
l-30 6 30 -14z"/>
<path d="M3301 3003 c78 -102 88 -110 125 -107 44 3 72 24 34 24 -27 1 -85 29
-60 30 14 0 -88 69 -104 70 -5 0 -2 -8 5 -17z"/>
<path d="M3460 2976 c14 -18 59 -40 66 -33 2 2 -15 14 -39 27 -33 19 -39 20
-27 6z"/>
<path d="M1675 2939 c-11 -12 -38 -36 -60 -55 -24 -20 -34 -33 -25 -34 9 0 41
25 73 55 31 30 51 55 45 55 -7 0 -22 -10 -33 -21z"/>
<path d="M3575 2933 c11 -3 26 -10 33 -15 8 -7 12 -7 12 0 0 12 -25 22 -48 21
-13 -1 -12 -3 3 -6z"/>
<path d="M1544 2897 c-27 -19 -56 -36 -64 -40 -12 -4 -12 -6 2 -6 14 -1 85 45
117 75 16 15 -15 -1 -55 -29z"/>
<path d="M2613 2910 c-21 -9 -32 -30 -16 -30 16 0 73 25 73 32 0 10 -29 9 -57
-2z"/>
<path d="M3648 2903 c12 -2 30 -2 40 0 9 3 -1 5 -23 4 -22 0 -30 -2 -17 -4z"/>
<path d="M3600 2896 c0 -2 7 -7 16 -10 8 -3 12 -2 9 4 -6 10 -25 14 -25 6z"/>
<path d="M3835 2861 c14 -7 16 -10 5 -11 -8 -1 2 -8 23 -15 21 -8 44 -12 51
-9 8 3 28 -10 46 -28 l32 -33 -22 32 c-25 35 -65 58 -120 67 -26 4 -30 4 -15
-3z"/>
<path d="M1725 2840 c3 -5 13 -10 21 -10 8 0 14 5 14 10 0 6 -9 10 -21 10 -11
0 -17 -4 -14 -10z"/>
<path d="M1277 2796 c-37 -12 -73 -29 -80 -36 -8 -8 -2 -7 18 3 17 8 56 23 88
32 31 9 57 18 57 21 0 7 -13 4 -83 -20z"/>
<path d="M1333 2793 c-7 -2 -13 -9 -13 -14 0 -14 26 -10 40 6 10 12 10 15 -1
14 -8 0 -20 -3 -26 -6z"/>
<path d="M1270 2760 c-8 -5 -10 -10 -5 -10 6 0 17 5 25 10 8 5 11 10 5 10 -5
0 -17 -5 -25 -10z"/>
<path d="M4312 1195 c0 -16 2 -22 5 -12 2 9 2 23 0 30 -3 6 -5 -1 -5 -18z"/>
<path d="M3920 1169 c0 -5 5 -7 10 -4 6 3 10 8 10 11 0 2 -4 4 -10 4 -5 0 -10
-5 -10 -11z"/>
<path d="M4303 1115 c0 -22 2 -30 4 -17 2 12 2 30 0 40 -3 9 -5 -1 -4 -23z"/>
<path d="M4290 923 c0 -64 2 -114 4 -112 9 11 15 229 6 229 -6 0 -10 -47 -10
-117z"/>
</g>
</svg>
